<?xml version="1.0" encoding="iso-8859-1"?>
<!-- Uploaded to: SVG Repo, www.svgrepo.com, Generator: SVG Repo Mixer Tools -->
<svg fill="#000000" height="800px" width="800px" version="1.1" id="Layer_1" xmlns="http://www.w3.org/2000/svg" xmlns:xlink="http://www.w3.org/1999/xlink" 
	 viewBox="0 0 512 512" xml:space="preserve">
<g>
	<g>
		<path d="M430.951,317.154c-36.777,0-66.697,29.92-66.697,66.697c0,36.777,29.92,66.697,66.697,66.697
			c36.777,0,66.697-29.92,66.697-66.697C497.648,347.074,467.728,317.154,430.951,317.154z M430.951,419.64
			c-19.734,0-35.788-16.054-35.788-35.788c0-19.734,16.054-35.788,35.788-35.788c19.734,0,35.788,16.054,35.788,35.788
			C466.738,403.586,450.684,419.64,430.951,419.64z"/>
	</g>
</g>
<g>
	<g>
		<path d="M66.697,363.518c-11.212,0-20.333,9.121-20.333,20.333c0,11.212,9.121,20.333,20.333,20.333s20.333-9.121,20.333-20.333
			C87.03,372.639,77.91,363.518,66.697,363.518z"/>
	</g>
</g>
<g>
	<g>
		<path d="M430.951,363.518c-11.212,0-20.333,9.121-20.333,20.333c0,11.212,9.121,20.333,20.333,20.333s20.333-9.121,20.333-20.333
			C451.284,372.639,442.162,363.518,430.951,363.518z"/>
	</g>
</g>
<g>
	<g>
		<path d="M312.863,61.451v141.804h-37.862h-15.455h-29.985v30.909h29.985v43.516h-80.948V151.373h37.392v-30.909h-37.392h-15.455
			h-56.162L35.247,325.055C14.287,336.311,0,358.442,0,383.851c0,36.777,29.92,66.697,66.697,66.697s66.697-29.92,66.697-66.697
			c0-3.737-0.325-7.399-0.918-10.97h216.208l3.172-11.266c9.933-35.278,42.457-59.916,79.094-59.916
			c21.901,0,42.521,8.557,58.058,24.094l21.856-21.857c-17.679-17.679-40.153-28.78-64.459-32.093v-37.679H512v0V61.451H312.863z
			 M66.697,419.64c-19.734,0-35.788-16.054-35.788-35.789c0-15.203,9.532-28.213,22.932-33.39c0.312-0.121,0.626-0.239,0.941-0.35
			c0.223-0.078,0.447-0.154,0.672-0.228c0.318-0.105,0.637-0.209,0.957-0.306c0.241-0.072,0.484-0.139,0.726-0.207
			c0.306-0.084,0.611-0.169,0.918-0.246c0.27-0.067,0.543-0.128,0.815-0.189c0.285-0.064,0.57-0.129,0.856-0.185
			c0.303-0.06,0.609-0.111,0.915-0.164c0.263-0.045,0.524-0.093,0.788-0.132c0.339-0.05,0.682-0.09,1.025-0.131
			c0.236-0.028,0.471-0.061,0.707-0.084c0.389-0.038,0.783-0.064,1.177-0.09c0.194-0.012,0.387-0.032,0.582-0.041
			c0.589-0.029,1.182-0.045,1.777-0.045c0.709,0,1.413,0.028,2.114,0.068c0.262,0.016,0.52,0.038,0.78,0.06
			c0.42,0.033,0.84,0.074,1.257,0.122c0.338,0.039,0.675,0.08,1.01,0.129c0.284,0.04,0.566,0.09,0.849,0.137
			c9.226,1.567,17.264,6.668,22.654,13.868c0.004,0.005,0.008,0.011,0.012,0.016c4.465,5.971,7.112,13.377,7.112,21.389
			C102.486,403.586,86.432,419.64,66.697,419.64z M415.496,271.86c-40.015,5.57-74.496,32.446-89.564,70.113H118.593
			c-1.487-1.834-3.068-3.579-4.731-5.236c-10.369-10.379-24.136-17.354-39.465-19.125c-0.084-0.01-0.168-0.023-0.251-0.032
			c-0.894-0.1-1.795-0.174-2.699-0.239c-0.24-0.018-0.478-0.048-0.718-0.064l58.171-165.906h18.791v157.218h142.766v-74.426h22.407
			h102.632V271.86z M481.091,203.255h-34.685H343.773V92.361h53.204v39.594h30.909V92.361h53.204V203.255z"/>
	</g>
</g>
</svg>