<svg width="123" height="26" viewBox="0 0 123 26" fill="none" xmlns="http://www.w3.org/2000/svg">
<path fill-rule="evenodd" clip-rule="evenodd" d="M25.3702 1.83129L25.3745 1.83275L25.99 2.04432V23.9824L25.3412 24.1779C18.5381 26.2281 12.3671 26.2275 7.89836 25.7154C5.66303 25.4593 3.84939 25.0748 2.58957 24.7525C1.95949 24.5913 1.46738 24.4456 1.12971 24.339C0.960857 24.2857 0.830564 24.2421 0.740888 24.2113C0.696047 24.1959 0.661356 24.1837 0.637069 24.1751L0.608472 24.1648L0.600085 24.1617L0.59738 24.1607L0.595671 24.1601L0 23.9398V2.03022L0.633089 1.8269C7.03927 -0.230448 13.2186 -0.226543 17.7815 0.284287C20.0658 0.540023 21.9537 0.92378 23.2744 1.24481C23.935 1.40538 24.4544 1.55045 24.8113 1.65629C24.9898 1.70921 25.1278 1.75235 25.2225 1.78274C25.2699 1.79794 25.3064 1.80995 25.3319 1.81841L25.3616 1.82838L25.3702 1.83129ZM1.82386 3.36685V22.6449C2.12425 22.7372 2.53354 22.8556 3.04159 22.9855C4.23258 23.2902 5.96407 23.658 8.10599 23.9034C12.2489 24.3781 17.9117 24.3934 24.1661 22.6213V3.36771C23.8421 3.27362 23.3965 3.15146 22.8436 3.01705C21.5852 2.71116 19.7741 2.34262 17.5786 2.09682C13.3343 1.62167 7.68599 1.60881 1.82386 3.36685ZM20.0624 12.9494L9.39287 19.1095L9.39287 6.78933L20.0624 12.9494ZM44.8209 6.36719V18.9682H41.3738V11.9017L39.0757 15.3105H37.2756L34.7477 11.9017V18.9682H31.5879V6.36719H34.7669L38.4055 11.308L41.6611 6.36719H44.8209ZM46.5766 9.22061V6.36719H58.335V9.22061H54.2177V18.9682H50.7131V9.22061H46.5766ZM72.0583 18.9682V6.36719H68.8985V13.3188L63.2299 6.36719H60.0892V18.9682H63.2491V11.7676L69.1666 18.9682H72.0583ZM80.7766 6.36719C83.9747 6.36719 85.7748 7.86093 85.7748 10.3888C85.7748 12.955 83.8981 14.5253 80.7383 14.5253H77.5018V18.9682H75.5293V6.36719H80.7766ZM80.6425 12.8975C82.7108 12.8975 83.7066 11.9783 83.7066 10.4271C83.7066 8.8759 82.7108 7.99498 80.6425 7.99498H77.5018V12.8975H80.6425ZM90.406 6.36719H88.4335V18.9682H97.3385V17.3021H90.406V6.36719ZM108.694 18.9874L107.315 15.7701H101.264L99.9039 18.9682H98.008L103.466 6.36719H105.323L110.762 18.9682L108.694 18.9874ZM106.626 14.1423L104.289 8.66525L101.953 14.1423H106.626ZM122.325 6.36719H120.238L116.312 12.2272L112.424 6.36719H110.164L115.259 13.7593V18.9682H117.212V13.7593L122.325 6.36719Z" fill="#FFD200"/>
</svg>
