<?xml version="1.0"?>
<svg width="132" height="18" xmlns="http://www.w3.org/2000/svg">
<defs>
 <linearGradient id="paint0_linear_2573_7819" x1="-0.45" x2="0.23" y1="0.48" y2="1.8">
  <stop offset="0" stop-color="#FFBE00"/>
  <stop offset="1" stop-color="#E85E0A"/>
 </linearGradient>
</defs>
 <path d="m48.42,15.59l3.33,0l0,-10.53l-3.33,0l0,6.03c0,0.69 -0.18,1.25 -0.54,1.66c-0.36,0.4 -0.84,0.61 -1.44,0.61c-1.21,0 -1.82,-0.75 -1.82,-2.23l0,-6.07l-3.34,0l0,6.36c0,2.95 1.26,4.43 3.77,4.43c1.39,0 2.49,-0.63 3.32,-1.87l0.05,0l0,1.61zm-11.49,0l3.16,0l0,-6.29c0,-3 -1.55,-4.5 -4.63,-4.5c-0.67,0 -1.41,0.09 -2.21,0.27c-0.81,0.18 -1.45,0.38 -1.91,0.62l0,2.44c1.16,-0.74 2.39,-1.12 3.68,-1.12c1.28,0 1.93,0.58 1.93,1.73l-2.95,0.38c-2.49,0.32 -3.73,1.49 -3.73,3.54c0,0.96 0.3,1.74 0.9,2.32c0.6,0.58 1.43,0.87 2.49,0.87c1.42,0 2.5,-0.6 3.22,-1.77l0.05,0l0,1.51zm0.02,-4.99l0,0.71c0,0.65 -0.2,1.18 -0.6,1.6c-0.39,0.42 -0.9,0.63 -1.53,0.63c-0.45,0 -0.81,-0.12 -1.08,-0.35c-0.26,-0.24 -0.39,-0.54 -0.39,-0.91c0,-0.82 0.54,-1.3 1.63,-1.43l1.97,-0.25zm23.59,4.99l3.35,0l0,-15.59l-3.35,0l0,6.26l-0.04,0c-0.55,-0.97 -1.52,-1.46 -2.92,-1.46c-1.47,0 -2.66,0.53 -3.58,1.57c-0.91,1.05 -1.36,2.45 -1.36,4.19c0,1.67 0.41,2.96 1.24,3.89c0.82,0.93 1.91,1.4 3.27,1.4c1.47,0 2.59,-0.57 3.35,-1.71l0.04,0l0,1.45zm0.07,-5.92l0,0.8c0,0.87 -0.21,1.57 -0.64,2.1c-0.43,0.52 -0.98,0.79 -1.66,0.79c-0.71,0 -1.27,-0.25 -1.67,-0.76c-0.4,-0.49 -0.61,-1.21 -0.61,-2.13c0,-0.99 0.21,-1.76 0.63,-2.33c0.42,-0.57 1,-0.85 1.74,-0.85c0.65,0 1.19,0.23 1.59,0.68c0.41,0.45 0.62,1.02 0.62,1.7zm5.04,-6.77c0.37,0.33 0.83,0.49 1.39,0.49c0.57,0 1.04,-0.16 1.39,-0.47c0.36,-0.32 0.54,-0.72 0.54,-1.21c0,-0.49 -0.18,-0.89 -0.54,-1.2c-0.35,-0.31 -0.82,-0.46 -1.39,-0.46c-0.56,0 -1.02,0.15 -1.39,0.46c-0.36,0.31 -0.53,0.71 -0.53,1.2c0,0.47 0.17,0.87 0.53,1.19zm3.34,10.13c-0.22,-0.22 -0.33,-0.56 -0.33,-1.01l0,-6.96l-3.32,0l0,7.68c0,0.48 0.07,0.91 0.21,1.3c0.14,0.38 0.34,0.71 0.6,0.98c0.26,0.27 0.57,0.48 0.93,0.62c0.36,0.15 0.77,0.22 1.21,0.22c0.49,0 0.96,-0.04 1.4,-0.1c0.45,-0.07 0.88,-0.15 1.28,-0.25l0,-2.29l-0.03,0.01l0,0c-0.17,0.03 -0.35,0.06 -0.52,0.09c-0.18,0.04 -0.37,0.06 -0.55,0.06c-0.37,0 -0.66,-0.12 -0.88,-0.35zm3.01,1.34c1.03,0.98 2.45,1.48 4.26,1.48c1.83,0 3.28,-0.51 4.33,-1.53c1.06,-1.01 1.59,-2.39 1.59,-4.14c0,-1.62 -0.52,-2.92 -1.54,-3.9c-1.02,-0.99 -2.44,-1.48 -4.24,-1.48c-1.82,0 -3.27,0.49 -4.35,1.48c-1.07,0.98 -1.6,2.34 -1.6,4.09c0,1.68 0.51,3.02 1.55,4zm2.5,-6.29c0.44,-0.53 1.05,-0.79 1.84,-0.79c1.62,0 2.43,0.98 2.43,2.95c0,2.08 -0.81,3.12 -2.41,3.12c-1.68,0 -2.52,-1.01 -2.52,-3.04c0,-0.96 0.22,-1.71 0.66,-2.24zm22.44,7.51l3.33,0l0,-6.55c0,-2.83 -1.18,-4.24 -3.53,-4.24c-1.61,0 -2.82,0.66 -3.64,1.96c-0.57,-1.3 -1.62,-1.96 -3.15,-1.96c-0.74,0 -1.42,0.18 -2.05,0.53c-0.62,0.35 -1.11,0.81 -1.45,1.37l-0.05,0l0,-1.64l-3.34,0l0,10.53l3.34,0l0,-5.85c0,-0.76 0.18,-1.35 0.52,-1.79c0.34,-0.44 0.8,-0.66 1.37,-0.66c1.13,0 1.71,0.74 1.71,2.23l0,6.07l3.34,0l0,-5.9c0,-0.68 0.17,-1.25 0.52,-1.71c0.35,-0.46 0.79,-0.69 1.34,-0.69c1.16,0 1.74,0.77 1.74,2.29l0,6.01zm13.71,0l-3.16,0l0,-1.51l-0.05,0c-0.72,1.17 -1.8,1.77 -3.22,1.77c-1.06,0 -1.88,-0.29 -2.49,-0.87c-0.6,-0.58 -0.9,-1.36 -0.9,-2.32c0,-2.05 1.25,-3.22 3.74,-3.54l2.94,-0.38c0,-1.15 -0.64,-1.73 -1.93,-1.73c-1.29,0 -2.52,0.38 -3.68,1.12l0,-2.44c0.46,-0.24 1.1,-0.44 1.91,-0.62c0.81,-0.18 1.54,-0.27 2.21,-0.27c3.09,0 4.63,1.5 4.63,4.5l0,6.29zm-3.14,-4.28l0,-0.71l-1.97,0.25c-1.09,0.13 -1.63,0.61 -1.63,1.43c0,0.37 0.13,0.67 0.4,0.91c0.26,0.23 0.62,0.35 1.07,0.35c0.63,0 1.14,-0.21 1.54,-0.63c0.39,-0.42 0.59,-0.95 0.59,-1.6zm12.72,3.9c-0.75,0.42 -1.85,0.64 -3.27,0.64c-1.67,0 -3.01,-0.49 -4.04,-1.48c-1.03,-0.98 -1.55,-2.24 -1.55,-3.79c0,-1.79 0.55,-3.2 1.66,-4.23c1.1,-1.03 2.58,-1.55 4.43,-1.55c1.27,0 2.2,0.17 2.77,0.49l0,2.76c-0.7,-0.51 -1.48,-0.76 -2.34,-0.76c-0.96,0 -1.72,0.27 -2.28,0.82c-0.56,0.54 -0.84,1.29 -0.84,2.26c0,0.93 0.27,1.66 0.8,2.19c0.54,0.53 1.28,0.8 2.21,0.8c0.84,0 1.65,-0.26 2.45,-0.77l0,2.62zm7.76,0.38l4.01,0l-4.16,-5.59l3.88,-4.94l-3.97,0l-3.23,4.86l-0.04,0l0,-9.92l-3.34,0l0,15.59l3.34,0l0,-5.22l0.04,0l3.47,5.22z" fill="black" fill-rule="evenodd"/>
 <path d="m0.34,8.78c0,0 0.57,-0.09 0.8,0.15c0.23,0.24 0.08,0.74 -0.23,0.75c-0.31,0.01 -0.59,0.07 -0.79,-0.15c-0.21,-0.21 -0.15,-0.64 0.22,-0.75zm6.11,3.42c-0.06,0.01 -0.11,-0.02 -0.17,-0.06c-0.41,-0.56 -0.55,-2.48 -0.74,-2.6c-0.19,-0.12 -0.88,1.07 -2.27,0.94c-0.57,-0.05 -1.16,-0.43 -1.51,-0.69c0.03,-0.44 0.04,-1.46 0.9,-1.12c0.52,0.2 1.42,0.75 2.21,-0.24c0.86,-1.1 1.34,-0.78 1.63,-0.54c0.29,0.24 0.1,1.48 0.53,1.13c0.43,-0.35 2.16,-2.5 2.16,-2.5c0,0 1.34,-1.36 1.54,0.07c0.21,1.42 1.08,3 1.32,2.95c0.23,-0.04 2.92,-5.53 3.31,-5.88c0.39,-0.36 1.69,-0.31 1.63,0.6c-0.07,0.9 -0.2,6.55 -0.2,6.55c0,0 -0.15,1.59 0.1,0.74c0.1,-0.35 0.21,-0.67 0.35,-1.04c0.67,-2.14 1.8,-5.78 2.36,-7.66c0.13,-0.45 0.25,-0.83 0.33,-1.13l0,0c0.04,-0.14 0.07,-0.24 0.1,-0.34c0.05,-0.16 0.08,-0.27 0.09,-0.29c0.03,-0.07 0.1,-0.13 0.2,-0.17c0.1,-0.06 0.21,-0.06 0.33,-0.07c0.31,-0.02 0.71,0.02 1.08,0.12c0.1,0 0.22,0.04 0.33,0.12l0,0c0,0 0,0 0.01,0.01c0,0 0.01,0 0.01,0c0.02,0.02 0.06,0.05 0.1,0.1c0,0 0,0 0.01,0c0.01,0.03 0.03,0.05 0.05,0.08c0.2,0.3 0.33,0.85 0.2,1.82c-0.31,2.42 -0.55,7.41 -0.55,7.41c0,0 -0.05,0.24 0.45,-0.81c0.02,-0.03 0.04,-0.07 0.06,-0.1c0.03,-0.02 0.06,-0.04 0.1,-0.09c0.3,-0.37 1.13,-0.58 1.71,-0.58c0.24,0.03 0.45,0.09 0.57,0.17c0.22,0.34 0.09,1.62 0.09,1.62c-0.48,0.05 -1.39,0.3 -1.71,0.35c-0.33,0.05 -0.82,2.15 -1.5,1.94c-0.69,-0.22 -2.21,-1.17 -2.21,-1.31c0,-0.11 0.12,-1.51 0.15,-1.87c0.01,-0.02 0.01,-0.05 0.01,-0.07c0,-0.01 0,-0.01 0,-0.01l0,0c0.02,-0.29 0,-0.41 -0.13,-0.13c-0.11,0.25 -0.6,1.81 -1.15,3.5c-0.06,0.15 -1.09,3.28 -1.22,3.66c-0.17,0.45 -0.3,0.79 -0.4,0.96c-0.14,0.19 -0.33,0.32 -0.6,0.23c-0.67,-0.2 -1.52,-1.13 -1.53,-1.36c-0.02,-1.3 0.06,-8.28 -0.25,-7.7c-0.32,0.6 -2.83,4.74 -2.83,4.74c-0.05,0.01 -0.08,0.01 -0.11,0.01c-0.18,-0.02 -0.46,-0.08 -0.53,-0.25c-0.01,-0.01 -0.01,-0.02 -0.02,-0.03c0,-0.01 -0.01,-0.02 -0.01,-0.04c-0.04,-0.11 -0.05,-0.24 -0.08,-0.34c-0.11,-0.38 -0.29,-0.92 -0.48,-1.47c-0.29,-0.95 -0.59,-1.91 -0.64,-2.02c-0.09,-0.21 -0.23,-0.12 -0.36,0c-0.56,0.48 -1.75,2.58 -2.82,2.69z" fill="url(#paint0_linear_2573_7819)" fill-rule="evenodd"/>
</svg>